<svg width="320" height="480" viewBox="0 0 320 480" fill="none" xmlns="http://www.w3.org/2000/svg">
<g id="Group 26">
<path id="Vector" d="M80 96C80 51.9 115.9 16 160 16C204.1 16 240 51.9 240 96V144H256V96C256 43.1 212.9 0 160 0C107.1 0 64 43.1 64 96V144H80V96Z" fill="#808080"/>
<g id="Group 25">
<path id="Vector_2" d="M152 240H168V256H152V240Z" fill="#808080"/>
<path id="Vector_3" d="M64 178.2C59.2 181 56 186.1 56 192C56 200.8 63.2 208 72 208C80.8 208 88 200.8 88 192C88 186.1 84.8 181 80 178.2V192H64V178.2Z" fill="#808080"/>
<path id="Vector_4" d="M240 178.2C235.2 181 232 186.1 232 192C232 200.8 239.2 208 248 208C256.8 208 264 200.8 264 192C264 186.1 260.8 181 256 178.2V192H240V178.2Z" fill="#808080"/>
<path id="Vector_5" d="M173.5 311.6C170.2 310.5 168 307.5 168 304V272H152V304C152 307.4 149.8 310.5 146.5 311.6C135.8 315.2 128.6 324.9 128.1 336H191.9C191.4 324.9 184.1 315.2 173.5 311.6Z" fill="#808080"/>
<path id="Vector_6" d="M128 440C128 444.4 131.6 448 136 448H184C188.4 448 192 444.4 192 440V416H128V440Z" fill="#808080"/>
<path id="Vector_7" d="M256 144V161.1C269.8 164.7 280 177.1 280 192C280 209.6 265.6 224 248 224C230.4 224 216 209.6 216 192C216 177.1 226.2 164.7 240 161.1V144H80V161.1C93.8 164.7 104 177.1 104 192C104 209.6 89.6 224 72 224C54.4 224 40 209.6 40 192C40 177.1 50.2 164.7 64 161.1V144H0V480H320V176C320 170 318.8 150 319.3 143.3C309.1 143.3 256 144 256 144ZM208 440C208 453.2 197.2 464 184 464H136C122.8 464 112 453.2 112 440V337.3C112 320.7 121.4 305.8 136 298.7V232C136 227.6 139.6 224 144 224H176C180.4 224 184 227.6 184 232V298.7C198.6 305.9 208 320.8 208 337.3V440Z" fill="#808080"/>
<path id="Vector_8" d="M128 352H192V400H128V352Z" fill="#808080"/>
</g>
</g>
</svg>
