<svg width="219" height="285" viewBox="0 0 219 285" fill="none" xmlns="http://www.w3.org/2000/svg">
<g id="Group 29">
<path id="Vector" d="M54.9167 54.6667C54.9167 29.5542 79.4109 9.11111 109.5 9.11111C139.589 9.11111 164.083 29.5542 164.083 54.6667V82H175V54.6667C175 24.5431 145.593 0 109.5 0C73.4068 0 44 24.5431 44 54.6667V82H54.9167V54.6667Z" fill="white"/>
<path id="Vector_2" d="M41 96C36.2 98.8 33 103.9 33 109.8C33 118.6 40.2 125.8 49 125.8C57.8 125.8 65 118.6 65 109.8C65 103.9 61.8 98.8 57 96V109.8H41V96Z" fill="white"/>
<path id="Vector_3" d="M162 96C157.2 98.8 154 103.9 154 109.8C154 118.6 161.2 125.8 170 125.8C178.8 125.8 186 118.6 186 109.8C186 103.9 182.8 98.8 178 96V109.8H162V96Z" fill="white"/>
<path id="Vector_4" d="M180.938 81.3584C177.757 81.3944 175.2 83.9836 175.2 87.165V87.165C175.2 89.8692 177.106 92.145 179.575 93.2476C186.722 96.4388 191.625 102.941 191.625 110.506C191.625 121.17 181.77 129.895 169.725 129.895C157.68 129.895 147.825 121.17 147.825 110.506C147.825 102.931 152.74 96.4222 159.902 93.2354C162.357 92.1431 164.25 89.8816 164.25 87.1948V87.1948C164.25 84.0077 161.666 81.4241 158.479 81.4241H60.5207C57.3336 81.4241 54.75 84.0077 54.75 87.1948V87.1948C54.75 89.8816 56.6431 92.1431 59.0978 93.2354C66.2597 96.4222 71.175 102.931 71.175 110.506C71.175 121.17 61.32 129.895 49.275 129.895C37.23 129.895 27.375 121.17 27.375 110.506C27.375 102.931 32.2903 96.4222 39.4522 93.2354C41.9069 92.1431 43.8 89.8816 43.8 87.1948V87.1948C43.8 84.0077 41.2164 81.4241 38.0293 81.4241H9.99999C4.47714 81.4241 0 85.9013 0 91.4241V275C0 280.523 4.47715 285 10 285H209C214.523 285 219 280.523 219 275V100.812C219 99.1175 218.821 95.579 218.666 91.8729C218.42 86.0239 213.504 81.0226 207.65 81.0769C198.979 81.1574 187.66 81.2824 180.938 81.3584ZM142.35 260.765C142.35 268.762 134.959 275.306 125.925 275.306H93.075C84.0412 275.306 76.65 268.762 76.65 260.765V198.541C76.65 190.562 80.6984 183.232 87.3603 178.395C90.5924 176.048 93.075 172.566 93.075 168.572V134.742C93.075 132.076 95.5387 129.895 98.55 129.895H120.45C123.461 129.895 125.925 132.076 125.925 134.742V168.608C125.925 172.584 128.384 176.055 131.599 178.394C138.285 183.26 142.35 190.594 142.35 198.541V260.765Z" fill="white"/>
<path id="Vector_5" d="M119.445 180.6C117.014 179.5 115.393 176.5 115.393 173V141H103.607V173C103.607 176.4 101.986 179.5 99.5549 180.6C91.6724 184.2 86.3683 193.9 86 205H133C132.632 193.9 127.254 184.2 119.445 180.6Z" fill="white"/>
<path id="Vector_6" d="M86 258.5C86 262.075 88.6437 265 91.875 265H127.125C130.356 265 133 262.075 133 258.5V239H86V258.5Z" fill="white"/>
<path id="Vector_7" d="M86 212H133V232H86V212Z" fill="white"/>
</g>
</svg>
