<svg width="320" height="480" viewBox="0 0 320 480" fill="none" xmlns="http://www.w3.org/2000/svg">
<g id="Group 31">
<g id="Group 29">
<path id="Vector" d="M80 96C80 51.9 115.9 16 160 16C204.1 16 240 51.9 240 96V144H256V96C256 43.1 212.9 0 160 0C107.1 0 64 43.1 64 96V144H80V96Z" fill="white"/>
<path id="Vector_2" d="M64 178.2C59.2 181 56 186.1 56 192C56 200.8 63.2 208 72 208C80.8 208 88 200.8 88 192C88 186.1 84.8 181 80 178.2V192H64V178.2Z" fill="white"/>
<path id="Vector_3" d="M240 178.2C235.2 181 232 186.1 232 192C232 200.8 239.2 208 248 208C256.8 208 264 200.8 264 192C264 186.1 260.8 181 256 178.2V192H240V178.2Z" fill="white"/>
<path id="Vector_4" d="M265.571 143.876C260.254 143.944 256 148.274 256 153.591C256 158.014 259.075 161.747 262.982 163.819C273.104 169.188 280 179.749 280 192C280 209.6 265.6 224 248 224C230.4 224 216 209.6 216 192C216 179.729 222.918 169.154 233.067 163.793C236.949 161.743 240 158.037 240 153.647C240 148.319 235.681 144 230.353 144H89.6469C84.319 144 80 148.319 80 153.647C80 158.037 83.0511 161.743 86.9328 163.793C97.0821 169.154 104 179.729 104 192C104 209.6 89.6 224 72 224C54.4 224 40 209.6 40 192C40 179.729 46.9179 169.154 57.0672 163.793C60.9489 161.743 64 158.037 64 153.647C64 148.319 59.681 144 54.3531 144H10C4.47715 144 0 148.477 0 154V470C0 475.523 4.47715 480 10 480H310C315.523 480 320 475.523 320 470V176C320 172.102 319.494 162.298 319.276 154.069C319.122 148.255 314.359 143.319 308.543 143.375C296.017 143.495 276.963 143.731 265.571 143.876ZM208 440C208 453.2 197.2 464 184 464H136C122.8 464 112 453.2 112 440V337.3C112 322.851 119.121 309.691 130.594 301.84C133.753 299.679 136 296.271 136 292.443V232C136 227.6 139.6 224 144 224H176C180.4 224 184 227.6 184 232V292.481C184 296.289 186.223 299.685 189.36 301.843C200.86 309.754 208 322.919 208 337.3V440Z" fill="white"/>
</g>
<g id="Group 30">
<path id="Vector_5" d="M152 240H168V256H152V240Z" fill="white"/>
<path id="Vector_6" d="M173.5 311.6C170.2 310.5 168 307.5 168 304V272H152V304C152 307.4 149.8 310.5 146.5 311.6C135.8 315.2 128.6 324.9 128.1 336H191.9C191.4 324.9 184.1 315.2 173.5 311.6Z" fill="white"/>
<path id="Vector_7" d="M128 440C128 444.4 131.6 448 136 448H184C188.4 448 192 444.4 192 440V416H128V440Z" fill="white"/>
<path id="Vector_8" d="M128 352H192V400H128V352Z" fill="white"/>
</g>
</g>
</svg>
